<?xml version="1.0" encoding="iso-8859-1"?>
<!-- Generator: Adobe Illustrator 19.0.0, SVG Export Plug-In . SVG Version: 6.00 Build 0)  -->
<svg version="1.1" id="Capa_1" xmlns="http://www.w3.org/2000/svg" xmlns:xlink="http://www.w3.org/1999/xlink" x="0px" y="0px"
	 viewBox="0 0 504.653 504.653" style="enable-background:new 0 0 504.653 504.653;" xml:space="preserve">
<g transform="translate(0 -1)">
	<g>
		<g>
			<path d="M474.55,326.612c-25.431-35.587-41.531-76.984-46.828-120.402c-0.407-3.169-1.184-6.279-2.313-9.267
				c0.271-0.603,0.468-1.237,0.584-1.889c5.631-48.566,34.205-90.307,50.713-110.832c5.239-6.418,6.88-15.05,4.361-22.943
				c-2.652-8.222-9.284-14.543-17.623-16.799l-23.877-6.541c-9.837-2.756-20.377,0.502-26.943,8.328
				c-27.586,35.097-48.275,75.1-60.975,117.896l-43.484-6.482c9.03-33.052,24.969-63.812,46.763-90.25
				c5.24-6.42,6.878-15.054,4.352-22.947c-2.648-8.22-9.278-14.539-17.615-16.791l-23.877-6.541
				c-9.838-2.755-20.377,0.505-26.943,8.332c-27.225,34.782-47.758,74.314-60.557,116.589l-43.858-6.537
				c8.953-33.456,25.016-64.587,47.096-91.269l0.033-0.037c5.187-6.485,6.767-15.142,4.205-23.041
				c-2.695-8.155-9.312-14.407-17.607-16.635l-23.828-6.541c-9.845-2.837-20.437,0.399-27.016,8.254
				c-29.815,38.007-51.541,81.712-63.842,128.426c-3.019,1.643-5.839,3.629-8.404,5.919C68.091,171.39,0.689,242.673,0.689,326.034
				c0,45.553,16.5,83.398,47.705,109.418c27.959,23.459,65.713,29.25,99.025,34.361l225.885,35.725
				c0.457,0.079,0.921,0.117,1.385,0.115c1.59-0.035,3.136-0.529,4.452-1.422c4.341,0.278,8.512,0.413,12.417,0.413
				c40.82,0,75.541-15.795,95.246-43.336C513.386,424.169,508.919,375.075,474.55,326.612z M425.665,56.833
				c2.331-2.692,6.03-3.756,9.434-2.713l23.877,6.541c2.879,0.732,5.181,2.888,6.098,5.713c0.823,2.514,0.284,5.276-1.426,7.295
				c-25.069,30.434-42.817,66.216-51.879,104.589c-7.664-6.045-17.138-9.338-26.899-9.352h-1.394l-15.042-2.242
				C380.522,126.817,399.93,89.57,425.665,56.833z M303.886,40.046c2.335-2.685,6.03-3.748,9.434-2.713l23.877,6.541
				c2.875,0.733,5.173,2.888,6.09,5.709c0.832,2.516,0.291,5.285-1.426,7.303c-23.68,28.754-40.856,62.293-50.348,98.313
				l-44.434-6.623C259.256,109.245,278.507,72.466,303.886,40.046z M182.321,20.878c2.395-2.673,6.121-3.718,9.557-2.68l23.82,6.541
				c2.865,0.716,5.167,2.844,6.107,5.643c0.845,2.535,0.325,5.326-1.377,7.385c-24.029,28.956-41.386,62.849-50.836,99.271
				l-26.803-3.967c-0.407-0.061-0.818-0.091-1.229-0.09h-14.615c-0.836,0-1.664,0.025-2.492,0.07
				C136.606,92.389,156.231,54.35,182.321,20.878z M149.96,453.218c-32.648-5.008-66.418-10.184-90.795-30.643
				c-27.747-24.244-43.066-59.72-41.689-96.541c0-76.733,63.631-143.815,90.951-169.065c2.49-2.292,5.383-4.103,8.533-5.34
				c3.184-1.231,6.569-1.862,9.984-1.861h14l33.993,5.031l0.006,0.002l166.599,24.827c-0.378,0.326-0.814,0.562-1.181,0.902
				c-28.975,26.762-96.377,98.012-96.377,181.426c0,45.521,16.475,83.377,47.648,109.471c2.221,1.86,4.479,3.602,6.758,5.268
				L149.96,453.218z M473.148,451.538c-16.508,23.082-46.254,36.32-81.59,36.32c-32.225,0.921-63.759-9.443-89.156-29.299
				c-27.705-24.297-42.996-59.778-41.631-96.602c0-76.783,63.623-143.828,90.984-169.094c5.025-4.633,11.616-7.194,18.451-7.168
				h14.664c13.16-0.237,24.413,9.416,26.18,22.459c5.62,46.217,22.747,90.285,49.811,128.168
				C478.476,361.157,503.493,409.153,473.148,451.538z"/>
			<path d="M353.239,294.808h27.828c7.902,0.002,15.347-3.707,20.106-10.015c4.759-6.309,6.28-14.485,4.107-22.083l-5.754-20.127
				c-3.735-13.078-15.298-22.39-28.872-23.251c-13.574-0.861-26.221,6.914-31.579,19.415l-8.984,20.963
				c-3.332,7.78-2.533,16.714,2.127,23.78S344.775,294.807,353.239,294.808z M345.517,266.325l8.984-20.963
				c2.559-5.973,8.6-9.688,15.085-9.277c6.485,0.411,12.008,4.86,13.792,11.109l5.754,20.131c0.727,2.532,0.222,5.258-1.364,7.361
				s-4.068,3.339-6.702,3.336h-27.828c-2.821-0.001-5.452-1.418-7.006-3.772C344.678,271.896,344.41,268.919,345.517,266.325z"/>
			<path d="M444.73,358.849c-11.985-23.82-35.595-39.601-62.189-41.566l-39.098-2.795c-26.981-1.94-50.673,17.789-53.648,44.676
				c-2.741,24.919,5.084,49.847,21.574,68.73l17.713,20.246c12.753,14.573,31.176,22.932,50.541,22.93h12.967
				c23.151,0.056,44.681-11.88,56.9-31.544c12.219-19.664,13.386-44.253,3.084-64.985L444.73,358.849z M435.209,430.698
				c-9.16,14.715-25.285,23.639-42.618,23.586h-12.967c-14.523,0.001-28.34-6.269-37.902-17.201l-17.721-20.246
				c-13.394-15.335-19.747-35.582-17.516-55.82c1.843-17.005,16.207-29.887,33.311-29.873c0.811,0,1.631,0.033,2.451,0.09
				l39.098,2.795c20.684,1.528,39.047,13.801,48.369,32.328v0l7.844,15.689C445.258,397.575,444.369,415.983,435.209,430.698z"/>
			<path d="M228.436,286.53l-17.842-2.974c4.528-8.984,9.566-17.702,15.088-26.112c2.542-3.875,1.461-9.077-2.414-11.619
				c-3.875-2.542-9.077-1.461-11.619,2.414c-6.814,10.392-12.919,21.233-18.273,32.448l-71.451-11.908
				c4.437-8.707,9.349-17.163,14.715-25.33c2.54-3.88,1.453-9.083-2.426-11.623c-3.88-2.54-9.083-1.453-11.623,2.426
				c-6.645,10.151-12.619,20.726-17.883,31.657l-27.354-4.559c-4.572-0.76-8.895,2.329-9.656,6.902
				c-0.761,4.572,2.329,8.895,6.902,9.656l23.154,3.859c-0.642,1.629-1.379,3.268-1.973,4.891
				c-4.448,12.141-7.631,24.71-9.498,37.505l-25.781-4.071c-4.579-0.724-8.878,2.401-9.602,6.98s2.401,8.878,6.979,9.602l0,0
				l26.81,4.233c-0.094,2.207-0.319,4.438-0.319,6.628c-0.022,10.218,0.883,20.417,2.705,30.471
				c0.175,0.951,0.469,1.851,0.662,2.796l-10.211-1.914c-4.553-0.849-8.933,2.151-9.788,6.703c-0.855,4.552,2.139,8.936,6.69,9.797
				l18.234,3.419c0.945,2.786,1.801,5.627,2.906,8.311c0.845,2.061,2.475,3.702,4.531,4.559c2.056,0.857,4.369,0.861,6.428,0.01
				c3.665-1.545,5.711-5.479,4.873-9.367l71.32,13.372c0.654,1.796,1.176,3.676,1.897,5.425c1.297,3.143,4.362,5.195,7.762,5.197
				c4.181,0.01,7.703-3.123,8.18-7.277l8.164,1.531c2.188,0.41,4.449-0.066,6.286-1.324c1.837-1.257,3.099-3.193,3.509-5.381
				c0.412-2.187-0.062-4.448-1.318-6.286c-1.256-1.837-3.191-3.1-5.379-3.509l-16.342-3.064c-1.104-3.928-2.09-7.928-2.846-12.034
				c-1.635-9.056-2.447-18.241-2.426-27.443c0-1.296,0.154-2.624,0.191-3.928l26.957,4.256c0.437,0.068,0.878,0.103,1.32,0.102
				c4.377-0.007,8.015-3.376,8.356-7.74c0.341-4.364-2.729-8.258-7.053-8.944l-28.086-4.435c1.698-11.741,4.614-23.273,8.701-34.409
				c0.854-2.337,1.879-4.697,2.84-7.049l22.25,3.708c4.572,0.761,8.895-2.329,9.656-6.902
				C236.098,291.613,233.008,287.29,228.436,286.53z M105.76,384.18c-0.784-3.044-1.601-6.074-2.177-9.212
				c-1.635-9.053-2.447-18.235-2.426-27.434c0-1.319,0.156-2.669,0.195-3.996l72.383,11.429c-0.092,2.184-0.316,4.392-0.316,6.559
				c-0.022,10.221,0.883,20.422,2.705,30.48c0.353,1.914,0.908,3.734,1.33,5.618L105.76,384.18z M184.829,300.652
				c-4.457,12.161-7.643,24.751-9.507,37.568l-72.472-11.443c1.699-11.717,4.61-23.226,8.684-34.342
				c0.954-2.6,2.082-5.225,3.168-7.845l71.779,11.963C185.949,297.917,185.327,299.292,184.829,300.652z"/>
		</g>
	</g>
</g>
<g>
</g>
<g>
</g>
<g>
</g>
<g>
</g>
<g>
</g>
<g>
</g>
<g>
</g>
<g>
</g>
<g>
</g>
<g>
</g>
<g>
</g>
<g>
</g>
<g>
</g>
<g>
</g>
<g>
</g>
</svg>
